<svg id="visual" viewBox="0 0 900 250" width="900" height="250" xmlns="http://www.w3.org/2000/svg" xmlns:xlink="http://www.w3.org/1999/xlink" version="1.1"><path d="M0 141L18.8 129.3C37.7 117.7 75.3 94.3 112.8 83.5C150.3 72.7 187.7 74.3 225.2 87.8C262.7 101.3 300.3 126.7 337.8 127C375.3 127.3 412.7 102.7 450.2 94.5C487.7 86.3 525.3 94.7 562.8 99.3C600.3 104 637.7 105 675.2 113.8C712.7 122.7 750.3 139.3 787.8 134C825.3 128.7 862.7 101.3 881.3 87.7L900 74L900 251L881.3 251C862.7 251 825.3 251 787.8 251C750.3 251 712.7 251 675.2 251C637.7 251 600.3 251 562.8 251C525.3 251 487.7 251 450.2 251C412.7 251 375.3 251 337.8 251C300.3 251 262.7 251 225.2 251C187.7 251 150.3 251 112.8 251C75.3 251 37.7 251 18.8 251L0 251Z" fill="#eeeeee"></path><path d="M0 96L18.8 105.2C37.7 114.3 75.3 132.7 112.8 132.7C150.3 132.7 187.7 114.3 225.2 109.2C262.7 104 300.3 112 337.8 114C375.3 116 412.7 112 450.2 115.8C487.7 119.7 525.3 131.3 562.8 130.5C600.3 129.7 637.7 116.3 675.2 112.3C712.7 108.3 750.3 113.7 787.8 123.8C825.3 134 862.7 149 881.3 156.5L900 164L900 251L881.3 251C862.7 251 825.3 251 787.8 251C750.3 251 712.7 251 675.2 251C637.7 251 600.3 251 562.8 251C525.3 251 487.7 251 450.2 251C412.7 251 375.3 251 337.8 251C300.3 251 262.7 251 225.2 251C187.7 251 150.3 251 112.8 251C75.3 251 37.7 251 18.8 251L0 251Z" fill="#f3f3f3"></path><path d="M0 179L18.8 178.2C37.7 177.3 75.3 175.7 112.8 171C150.3 166.3 187.7 158.7 225.2 160C262.7 161.3 300.3 171.7 337.8 174.3C375.3 177 412.7 172 450.2 164.8C487.7 157.7 525.3 148.3 562.8 146.5C600.3 144.7 637.7 150.3 675.2 155.3C712.7 160.3 750.3 164.7 787.8 161.3C825.3 158 862.7 147 881.3 141.5L900 136L900 251L881.3 251C862.7 251 825.3 251 787.8 251C750.3 251 712.7 251 675.2 251C637.7 251 600.3 251 562.8 251C525.3 251 487.7 251 450.2 251C412.7 251 375.3 251 337.8 251C300.3 251 262.7 251 225.2 251C187.7 251 150.3 251 112.8 251C75.3 251 37.7 251 18.8 251L0 251Z" fill="#f8f8f8"></path><path d="M0 143L18.8 142.2C37.7 141.3 75.3 139.7 112.8 138.2C150.3 136.7 187.7 135.3 225.2 135.2C262.7 135 300.3 136 337.8 145.5C375.3 155 412.7 173 450.2 178.2C487.7 183.3 525.3 175.7 562.8 171.3C600.3 167 637.7 166 675.2 170C712.7 174 750.3 183 787.8 176.7C825.3 170.3 862.7 148.7 881.3 137.8L900 127L900 251L881.3 251C862.7 251 825.3 251 787.8 251C750.3 251 712.7 251 675.2 251C637.7 251 600.3 251 562.8 251C525.3 251 487.7 251 450.2 251C412.7 251 375.3 251 337.8 251C300.3 251 262.7 251 225.2 251C187.7 251 150.3 251 112.8 251C75.3 251 37.7 251 18.8 251L0 251Z" fill="#fdfdfd"></path><path d="M0 186L18.8 187.3C37.7 188.7 75.3 191.3 112.8 188.2C150.3 185 187.7 176 225.2 172.3C262.7 168.7 300.3 170.3 337.8 170.3C375.3 170.3 412.7 168.7 450.2 165C487.7 161.3 525.3 155.7 562.8 156C600.3 156.3 637.7 162.7 675.2 167.2C712.7 171.7 750.3 174.3 787.8 178.7C825.3 183 862.7 189 881.3 192L900 195L900 251L881.3 251C862.7 251 825.3 251 787.8 251C750.3 251 712.7 251 675.2 251C637.7 251 600.3 251 562.8 251C525.3 251 487.7 251 450.2 251C412.7 251 375.3 251 337.8 251C300.3 251 262.7 251 225.2 251C187.7 251 150.3 251 112.8 251C75.3 251 37.7 251 18.8 251L0 251Z" fill="#ffffff"></path><path d="M0 220L18.8 211.5C37.7 203 75.3 186 112.8 185.2C150.3 184.3 187.7 199.7 225.2 206.5C262.7 213.3 300.3 211.7 337.8 210C375.3 208.3 412.7 206.7 450.2 203.5C487.7 200.3 525.3 195.7 562.8 197.2C600.3 198.7 637.7 206.3 675.2 210.5C712.7 214.7 750.3 215.3 787.8 209.2C825.3 203 862.7 190 881.3 183.5L900 177L900 251L881.3 251C862.7 251 825.3 251 787.8 251C750.3 251 712.7 251 675.2 251C637.7 251 600.3 251 562.8 251C525.3 251 487.7 251 450.2 251C412.7 251 375.3 251 337.8 251C300.3 251 262.7 251 225.2 251C187.7 251 150.3 251 112.8 251C75.3 251 37.7 251 18.8 251L0 251Z" fill="#ffffff"></path><path d="M0 224L18.8 224.5C37.7 225 75.3 226 112.8 226C150.3 226 187.7 225 225.2 224.2C262.7 223.3 300.3 222.7 337.8 219.2C375.3 215.7 412.7 209.3 450.2 210.7C487.7 212 525.3 221 562.8 219.3C600.3 217.7 637.7 205.3 675.2 201.2C712.7 197 750.3 201 787.8 203.5C825.3 206 862.7 207 881.3 207.5L900 208L900 251L881.3 251C862.7 251 825.3 251 787.8 251C750.3 251 712.7 251 675.2 251C637.7 251 600.3 251 562.8 251C525.3 251 487.7 251 450.2 251C412.7 251 375.3 251 337.8 251C300.3 251 262.7 251 225.2 251C187.7 251 150.3 251 112.8 251C75.3 251 37.7 251 18.8 251L0 251Z" fill="#ffffff"></path><path d="M0 232L18.8 233.5C37.7 235 75.3 238 112.8 234.7C150.3 231.3 187.7 221.7 225.2 218.2C262.7 214.7 300.3 217.3 337.8 221.3C375.3 225.3 412.7 230.7 450.2 232.3C487.7 234 525.3 232 562.8 229C600.3 226 637.7 222 675.2 219.3C712.7 216.7 750.3 215.3 787.8 214.2C825.3 213 862.7 212 881.3 211.5L900 211L900 251L881.3 251C862.7 251 825.3 251 787.8 251C750.3 251 712.7 251 675.2 251C637.7 251 600.3 251 562.8 251C525.3 251 487.7 251 450.2 251C412.7 251 375.3 251 337.8 251C300.3 251 262.7 251 225.2 251C187.7 251 150.3 251 112.8 251C75.3 251 37.7 251 18.8 251L0 251Z" fill="#ffffff"></path></svg>